<?xml version="1.0" encoding="UTF-8"?>
<!DOCTYPE svg PUBLIC "-//W3C//DTD SVG 1.1//EN" "http://www.w3.org/Graphics/SVG/1.1/DTD/svg11.dtd">
<!-- Creator: CorelDRAW 2020 (64-Bit) -->
<svg xmlns="http://www.w3.org/2000/svg" xml:space="preserve" width="96.4424mm" height="79.6719mm" version="1.1" style="shape-rendering:geometricPrecision; text-rendering:geometricPrecision; image-rendering:optimizeQuality; fill-rule:evenodd; clip-rule:evenodd"
viewBox="0 0 758.85 626.9"
 xmlns:xlink="http://www.w3.org/1999/xlink"
 xmlns:xodm="http://www.corel.com/coreldraw/odm/2003">
 <defs>
  <style type="text/css">
   <![CDATA[
    .fil1 {fill:#010101}
    .fil0 {fill:white}
   ]]>
  </style>
 </defs>
 <g id="Слой_x0020_1">
  <metadata id="CorelCorpID_0Corel-Layer"/>
  <g id="_1702965531456">
   <polygon class="fil0" points="226.82,474.23 574.8,474.22 722.25,474.2 722.28,39.51 36.19,39.7 36.19,474.21 "/>
   <path class="fil1" d="M170.32 531.48c2.17,-1.04 35.84,-35.39 42.37,-41.92l12.29 -12.24c1.82,-2.26 0.74,-0.42 1.83,-3.09l-190.63 -0.02 0 -434.51 686.09 -0.19 -0.03 434.69 -147.44 0.02c0.5,3.42 7,8.73 9.83,10.63l-46.67 46.66c45.06,-0.96 91.49,0.03 136.74,0.02 12.23,-0 59.89,1.46 67.93,-0.86 21.03,-6.07 15.59,-31.68 15.59,-54 0,-92.25 -0.01,-184.49 0,-276.75 0,-45.8 -0.34,-91.76 -0.02,-137.56 0.08,-11.46 -0.01,-22.93 0.02,-34.39 0.07,-31.44 -18.98,-27.84 -40.95,-27.84l-656.67 0c-11.46,0 -22.93,0.04 -34.39,-0.01 -12.01,-0.05 -19.11,3.33 -23.46,11.76 -4.25,8.23 -2.32,52.83 -2.33,66.03l0 415.13c0,26.08 -1.22,38.49 30.71,38.49 46.36,-0.01 92.85,0.33 139.19,-0.05zm0 0l115.52 0.05 -0.04 63.07 -91.57 -0.01 0.11 32.26 380.19 0.06 0.39 -32.36 -98.67 0.04 0.05 -63.04 61.66 -0.03 46.67 -46.66c-2.83,-1.89 -9.32,-7.21 -9.83,-10.63l-347.99 0c-1.1,2.67 -0.02,0.83 -1.83,3.09l-12.29 12.24c-6.53,6.53 -40.2,40.89 -42.37,41.92z"/>
   <path class="fil1" d="M319.11 107.78c-10.25,32.91 24.75,36.32 30.55,20.96 4.45,-11.8 -6.13,-22.38 -15.48,-16.31 -3.21,2.09 -6.13,8.15 -2.45,12.95 1.19,1.55 4.19,3.34 6.36,0.92 1.37,-1.53 -0.6,-3.14 0.67,-7.02l4.25 -0.11c4.66,6.72 -1.85,14.22 -10.59,12.07 -15.63,-3.84 -10.75,-30.73 9.75,-27.84 7.27,1.02 12.15,6.42 14.47,12.56 12.19,32.3 -51.79,44.69 -48.59,-1.2 -5.17,1.89 -13.53,9.06 -18.01,12.47 -19.28,14.7 -30.13,31.97 -34.44,58.06 -5.69,34.49 -2.05,50.61 4.14,82.43 0.81,4.17 1.84,8.32 3.38,12.19 1.79,4.5 3.59,6.7 2.79,12.4 -4.51,2.04 -7.8,2.57 -9.06,8.1 -1.45,6.36 10.77,34.14 14.02,37.25 2.78,2.65 6.76,4.97 9.96,7.2 6.08,4.23 3.1,4.06 12.69,4.6l23.87 2.28c3.74,0.83 3.24,1.55 6.25,2.68l-0.04 17.39c10.12,2.77 9.16,4.26 15.78,9.5 4.15,3.29 4.77,1.79 10.05,2.39 4.99,0.57 3.99,2.99 5.9,7.04 5.87,-2.02 3.7,-5.68 11.49,0.78 8.85,-7.54 8.83,-0.45 13.1,2.76 1.8,-1.69 3.34,-4.82 5.44,-5.66 4.06,-1.61 5.47,1.44 7.66,2.86 4.21,-4.14 5.09,-4.64 10.64,-0.95 2.03,-1.75 3.26,-5.57 5.43,-6.68 7.96,-2.64 7.6,1.72 14.67,-4.99 5.4,-5.13 5.24,-4.32 12.45,-7.21l-0.18 -17.15c5.31,-2.06 5.64,-3.28 13.54,-3.81 5.61,-0.37 11.57,-0.03 17.21,-0.09 4.92,-0.05 3.42,0.32 6.07,-2.04 4.55,-4.07 12.07,-7.92 15.08,-11.15 2.73,-2.94 15.2,-30.38 13.72,-37.29 -2.3,-10.79 -14.02,-1.75 -7.31,-17.67 1.49,-3.53 2.41,-5.93 3.35,-9.8 1.74,-7.24 2.21,-14.66 4.18,-22.01 3.9,-14.57 4.47,-32.06 3.09,-48.13 -3.18,-37.05 -11.82,-53.83 -32.1,-71.74 -36.49,-32.23 -86.69,-48.76 -135.71,-30.9 -6.65,2.42 -11.84,5.34 -18.06,7.92zm-71.99 96.06c1.79,-19.25 3.47,-28.32 9.08,-44.86 -3.93,-4.82 -13.18,-12.97 -19.83,-20.99 -7.24,-8.73 -9.15,-16.67 -19.21,-22.62 -26.78,-15.84 -31.01,-1.45 -36.97,12.5 -2.88,6.76 -4.22,8.11 -8.74,12.57 -1.81,1.79 -2.77,2.99 -4.68,5.15 -4.06,4.58 -11.68,8.3 -6.65,20.32 15.13,36.14 19.05,27.84 53.52,30.11 15.64,1.03 21.04,2.85 33.49,7.81zm-60.42 116.44c-13.27,0 -17.87,10.89 -22.55,18.41 -2.2,3.53 -4.31,4.89 -6.06,7.79 0.8,6.54 7.29,11.44 12.27,13.87 9.42,4.6 10.23,3.47 11.77,15.3 2.38,18.33 12.54,23.28 32.17,21.26 17.38,-1.79 19.53,-19.73 43.65,-37.3 3.67,-2.67 12.97,-8.72 15.68,-11.49 -5.99,-6.74 -6.48,-1.06 -13.38,-16.27 -2.92,-6.43 -6.79,-14.91 -8.12,-21.61 -7.43,1.38 -17.25,4.78 -30.65,7.13 -12.99,2.29 -21.23,2.9 -34.79,2.9zm315.56 -161.3c5.15,11.1 8.72,30.5 9.29,44.51 16,-5.16 14.01,-6.22 34.01,-7.49 35.79,-2.27 37.08,5.56 52.81,-29.84 7.88,-17.72 -12.28,-18.77 -20.02,-38.55 -5.22,-13.32 -8.16,-20.69 -22.15,-18.33 -8.73,1.47 -21.55,8.42 -25.5,16.26 -2.73,5.41 -4.89,8.33 -8.05,12.42 -3.32,4.28 -6.2,7.2 -9.74,10.72 -2.54,2.53 -9.16,7.8 -10.65,10.3zm68.05 231.56c-21.36,-2.51 -29.59,-50.12 9.46,-54.79 7.14,-0.85 11.06,1.05 12.69,0.28 -0.25,-4.9 -9.65,-13.1 -13.15,-14.55 -4,-1.66 -19.62,-1.28 -25.8,-1.92 -21.11,-2.2 -27.87,-3.18 -46.67,-9.93 -11.02,36.52 -16.75,32.1 -21.96,38.49 11.11,10.56 15.78,6.83 37.47,32.81 2.67,3.2 5.3,6.25 7.99,9.22 6.98,7.7 16.59,8.01 28.04,6.22 2.97,-0.46 9.32,-1.8 11.2,-4.31 1.06,-1.43 0.19,0.1 0.75,-1.52zm-101.05 -134.02c-18.16,4.7 -45.79,9.41 -65.4,13.15 -3.99,0.76 -4.67,0.14 -5.05,3.93 -1.07,10.95 8.17,27.59 19.67,34.29 12.51,7.28 42.31,18.42 52.81,3.82 5.02,-6.99 6.97,-17.92 6.92,-28.28 -0.08,-15.02 -2.25,-18.69 -8.96,-26.9zm-187.17 26.91l-0 0.82c-0.07,17.97 2.93,34.29 23.34,34.26 14.17,-0.02 27.27,-5.47 38.77,-12.69 10.08,-6.33 17.19,-18.51 16.86,-34.74l-61.21 -12.38c-5.38,-1.13 -8.31,-3.05 -11.35,0.47 -5.16,5.97 -6.37,14.23 -6.41,24.27zm288.22 107.11c2.33,-1.52 2.88,-3.16 4.57,-7.2 1.53,-3.66 1.16,-5.79 1.71,-9.76 1.69,-12.24 7.72,-11.23 10.43,-12.29 3.75,-1.46 11.23,-7.1 12.59,-10.61 1.48,-3.8 -0.21,-6.01 -2.01,-8.13l-5.13 -6.51c-1.64,0.77 -5.55,-1.14 -12.69,-0.28 -39.04,4.66 -30.82,52.27 -9.46,54.79zm-251.2 -282.76c-3.74,2.26 -8.64,4.08 -11.06,6.97 -3.2,45.89 60.78,33.5 48.59,1.2 -2.32,-6.14 -7.2,-11.54 -14.47,-12.56 -20.51,-2.88 -25.39,24.01 -9.75,27.84 8.74,2.15 15.25,-5.35 10.59,-12.07l-4.25 0.11c-1.27,3.88 0.7,5.49 -0.67,7.02 -2.17,2.42 -5.17,0.63 -6.36,-0.92 -3.68,-4.8 -0.76,-10.86 2.45,-12.95 9.35,-6.07 19.93,4.51 15.48,16.31 -5.8,15.36 -40.8,11.95 -30.55,-20.96zm57.74 193.49c-7.79,-2.6 -22.06,22.2 -21.91,37.04 0.08,8.04 1.67,10.56 5.65,15.2 2.87,3.35 6.89,8.98 10.86,1.68 5.03,-9.26 8.38,-46.32 5.41,-53.92zm15.37 57.7c8.72,-2.4 14.32,-14.48 12.27,-26.36 -2.82,-16.41 -21.6,-44.1 -22.27,-25.48 -0.48,13.28 1.11,45.15 10,51.84zm-26.13 53.77c6.42,0.83 6.35,1.35 11.9,0.57 1.48,-4.49 0.36,-10.29 -0.26,-14.62 -0.84,-5.86 -0.78,-8.95 -6.37,-9.68 -4.94,7.3 -4.78,13.38 -5.27,23.73zm15.35 0.28c3.78,0.86 8.95,0.25 12.43,-0.94 0.2,-5.17 -0.24,-8.75 -1.24,-13.58 -1,-4.89 -2.26,-8.47 -6.14,-9.38 -4.6,3.42 -6.27,17.07 -5.06,23.91zm-17.06 -1.85c0.2,-6.84 1.2,-17.46 -1.77,-22.01 -5.98,0.42 -7.46,7.83 -8.96,12.93 -3.29,11.15 -0.51,8.16 10.72,9.08zm43.05 -1.99c0.3,-2.29 -2.93,-18.99 -9.66,-20.1 -3.25,3.68 -2.67,10.02 -2.43,16.45 0.16,4.3 -0.3,5.38 4.22,5.57 3.01,0.12 5.77,-0.36 7.88,-1.91zm4.45 -2.11c8.69,-3.09 4.81,-22.27 -0.83,-22.24 -6.2,0.03 -7.24,18.32 0.83,22.24zm-61.03 -22.29c-10.89,-0.03 -8.36,20.35 -3.96,21.93 3.96,1.42 6.02,-5.11 6.59,-8.89 1.13,-7.37 -0.62,-8.54 -2.63,-13.03z"/>
   <path class="fil0" d="M374.33 482.23c-21.34,6.32 -11.88,39.09 9.98,32.39 20.6,-6.31 12.43,-39.02 -9.98,-32.39z"/>
  </g>
 </g>
</svg>
