<?xml version="1.0" encoding="UTF-8"?>
<!DOCTYPE svg PUBLIC "-//W3C//DTD SVG 1.1//EN" "http://www.w3.org/Graphics/SVG/1.1/DTD/svg11.dtd">
<!-- Creator: CorelDRAW 2020 (64-Bit) -->
<svg xmlns="http://www.w3.org/2000/svg" xml:space="preserve" width="123.206mm" height="79.942mm" version="1.1" style="shape-rendering:geometricPrecision; text-rendering:geometricPrecision; image-rendering:optimizeQuality; fill-rule:evenodd; clip-rule:evenodd"
viewBox="0 0 1646.05 1068.03"
 xmlns:xlink="http://www.w3.org/1999/xlink"
 xmlns:xodm="http://www.corel.com/coreldraw/odm/2003">
 <defs>
  <style type="text/css">
   <![CDATA[
    .fil0 {fill:#2B2A29}
   ]]>
  </style>
 </defs>
 <g id="Слой_x0020_1">
  <metadata id="CorelCorpID_0Corel-Layer"/>
  <path class="fil0" d="M1639.34 907.07c9.25,-5.47 6.25,-16.42 6.24,-28.79l-0 -677.18c0,-23.39 -0.16,-46.84 0.03,-70.22 0.21,-25.96 -1.06,-21.09 -50.41,-21.09 -168.15,0 -1417.6,-2.13 -1425.35,1.08 -8.36,3.46 -5.72,18.38 -5.71,28.83l0 677.18c0,23.38 0.2,46.85 -0.03,70.22 -0.26,25.84 1.31,20.94 50.43,20.94l1282.43 0c22.71,0 129.69,2.68 142.39,-0.97zm-584.11 -688.99c-154.25,11.27 -283.07,143.59 -270.45,312.82 11.38,152.61 145.06,282.04 313.18,268.85 152.85,-11.99 280,-143.48 268.57,-311.87 -10.43,-153.7 -145.23,-281.94 -311.3,-269.81zm-86.73 48.84c-0.36,13.65 10.84,15.32 26.91,39.21 6.92,10.29 18.24,28.51 22.84,42.86 -13.14,-7.05 -21.22,-18.14 -47.74,-26.72 -16.26,-5.27 -46.17,-12.03 -64.42,-9.91 -20.2,2.34 -66.49,66.52 -64.94,83.51 6.65,4.19 68.63,10.09 89.29,28.15 -42.75,2.51 -111.33,27.71 -115.73,56.16 -1.61,10.41 -1.92,22.66 -1.69,33.2 0.38,17.28 2.47,47.75 10.38,59.22 9.74,0.39 22.66,-12.12 42.04,-20.56 11.12,-4.84 33.53,-14.22 46.21,-14.9 -6.55,3.1 -28.4,30.03 -34.41,40.75 -8.09,14.45 -18.59,39.87 -21.18,57.53 -3.05,20.81 14.48,36.48 26.64,50.09 5.27,5.9 32.89,34.62 43.21,33.84 3.95,-1.55 15.67,-41.24 29.49,-63.39 2.5,-4 3.51,-5.53 6.22,-9.52 1.12,-1.65 1.31,-2.13 2.89,-4.12l4.91 -5.21c-4.25,40.56 1.66,77.14 19.76,108.57 9.34,16.22 23.02,18.01 44.98,21.65 17.04,2.82 47.83,5.27 63.53,1.35 1.77,-12.48 -17.96,-41.5 -20.47,-93l2.03 2.21c1.31,1.61 1.23,1.44 2.54,3.29 1.34,1.87 2.21,3.48 4.23,6.24 19.32,26.51 44.7,46.19 76.75,58.39 24.05,9.15 60.6,-17.22 77.9,-32.6 33.11,-29.44 21.65,-16.01 -21.09,-47.03 -9.99,-7.25 -29.04,-23.25 -34.28,-31.18 35.72,10.84 81.66,13.56 116.64,-2.58 13.99,-6.46 20.39,-27.38 25.88,-44.41 25.6,-79.23 3.92,-54.41 -35.21,-51.21 -16.71,1.37 -33.65,1.12 -50.14,-1.04 6.29,-4.76 18.85,-9.1 25.48,-12.8 22.82,-12.73 43.7,-35.08 58.05,-57.82 12.28,-19.45 2.5,-39.54 -5.56,-59.41 -27.69,-68.18 -34.38,-43.79 -45.43,-30.16 -15.07,18.59 -29.75,33.48 -53.11,46.57 7.48,-17.72 15.42,-30.04 18.51,-52.93 2.4,-17.8 3.45,-49.17 -2.04,-65.63 -3.1,-9.27 -9.3,-11.79 -17.55,-17.59 -6.66,-4.69 -14.83,-9.12 -23.33,-13.55l-38.68 -15.84c-32.05,-10.55 -1.37,32.84 -24.99,91.29 -5.49,-8.03 -4.52,-27.14 -20.09,-51.24 -10.8,-16.71 -35.23,-52.61 -57.05,-52.3 -26.9,0.38 -66.1,11.51 -88.17,22.55zm-966.16 -213.61l83.14 2.01 0.01 196.92 -71.25 0.13c-0.18,1.29 -0.35,1.49 -0.4,2.21l-0.98 9.56c-0.04,4.65 0.1,9.45 0.1,14.14 0.01,18.8 -1.11,67.6 0.53,80.08l71.59 1.01 0.39 46.79c-7.12,-0.1 -64.77,-2.03 -71.53,1.94 -3.53,37.02 -0.99,295.92 -0.98,354.38 0,6.62 -0.76,9.82 1.64,15.79 8,2.67 58.29,0.98 70.89,1l0 214.78c-0.01,15.11 3.73,10.77 44.83,10.76 12.89,-0 9.76,-2.81 9.74,-26.55l0 -943.84c0,-43.25 4.55,-33.5 -41.32,-33.5 -25.14,0 -50.3,0.11 -75.44,-0 -21.48,-0.09 -22.76,-4.9 -22.43,15.89 0.16,10.2 -2.83,28.96 1.47,36.5zm325 998.64c0.07,20.77 3.89,14.99 69.65,15.88 0.75,-62.24 -10.33,-84.23 24.26,-78.47 9.92,1.65 8.96,10.45 8.89,20.45 -0.13,19.11 -0.43,38.88 0.09,57.94l39.74 -0.11c0.24,-18.84 -2.18,-61.99 1.91,-76.01 7.05,-2.79 7.15,-2.43 16.32,-2.43 19.77,0 14.89,13.49 14.88,31.17 -0.01,15.72 -0.35,31.86 0.14,47.53l39.86 -0.11 0.21 -59.7c0,-8.24 -0.97,-15.96 7.05,-18.33 7.83,-2.32 18.8,-0.5 24.16,2.04 3.93,14.71 1.79,57.02 1.8,75.57l39.77 0.3c0.35,-19.83 -3.73,-63.57 3.53,-77.08 40.55,-10.07 27.35,10.33 29.89,77.17l39.76 -0.14c0,-18.11 -1.95,-62.88 1.75,-76.14 7.05,-2.55 22.28,-5.33 29.5,1.98 4.42,9.84 1.54,58.33 1.92,73.46l39.86 0.93 0.13 -61.53c0.01,-17 4.57,-17.16 18.76,-17.13 19.19,0.03 14.31,13.15 14.3,31.16 -0.01,15.68 -0.19,31.48 0.06,47.14l39.65 0.23c0.34,-15.27 0.08,-30.56 0.08,-45.61 -0.01,-23.24 -5.36,-32.92 17.84,-32.92 15.03,0 15.32,4.69 15.32,18.89l0.1 59.73c12.7,-0.12 28.73,1.45 37.93,-2.64 5.02,-21.82 1.37,-104.01 1.51,-133.03 -185.89,2.55 -380.86,-2.1 -567.12,0.07l-13.52 0.32 0.03 119.41zm733.08 -651.44c-53.97,8.29 -100.84,59.38 -90.2,123.76 8.74,52.9 58.79,99.63 123.28,89.3 87.71,-14.04 122.01,-115.87 57.88,-184.45 -3.93,-4.21 -2.75,-3.2 -7.39,-6.61 -21.88,-16.09 -48.38,-27.41 -83.56,-22.01zm2.46 14.4c-54.28,8.52 -87.96,55.46 -79.71,107.09 7.48,46.83 51.49,86.42 107.27,77.9 46.77,-7.15 85.96,-51.07 77.81,-106.85 -6.71,-45.9 -51.13,-86.65 -105.38,-78.14zm-495.91 -158.16c-10.37,4.82 -8.21,13.75 -8.16,26.79l0.01 456.14c-0.01,9.98 -2.31,24.5 3.86,30.79 5.7,5.8 23.59,5.6 31.17,2.81 9.48,-3.48 7.85,-14.23 7.82,-26.57l-0.01 -456.14c0.01,-9.69 1.73,-24.87 -3.62,-30.87 -5.3,-5.95 -23.4,-6.51 -31.07,-2.94zm-76.92 0.05c-10.47,5.38 -8.3,13.3 -8.23,26.74l0.01 456.14c-0.01,10.15 -1.82,25.13 3.54,30.87 4.72,5.05 23.3,5.78 31.26,2.74 10.18,-3.88 8.06,-15.39 8.01,-26.58l-0.01 -456.14c0,-9.68 1.79,-25.13 -3.6,-31.06 -5.22,-5.74 -23.7,-6.45 -30.98,-2.7zm572.92 184.48c-89.3,17.18 -60.39,150.72 25.96,132.51 87.58,-18.47 61.32,-149.3 -25.96,-132.51zm-632.66 -56.69c-31.17,0.11 -25.46,4.95 -25.46,53.34l-0.05 187.79c0.07,14.89 2.69,19.03 18.41,19.44 30.71,0.79 24.48,-9.01 24.48,-51.09l0.05 -187.78c0.05,-15.56 -0.75,-21.76 -17.43,-21.7zm248.36 235.8l0 -214.03c0,-20.88 -4.75,-21.79 -25.56,-21.79 -24.1,0 -17.23,22.02 -17.23,69.16l-0.09 172.03c0.06,18.23 6.67,19.76 24.43,19.41 17.21,-0.34 18.45,-8.63 18.45,-24.77zm843.35 -425.04c-63.81,10.94 -44.09,103.22 15.69,91.96 60.69,-11.43 43.24,-102.07 -15.69,-91.96zm0.06 535.12c-64.28,11.43 -43.77,102.92 15.53,91.98 60.74,-11.21 43.27,-102.44 -15.53,-91.98zm-1272.23 -535.24c-62.31,10.47 -47.2,101.19 13.82,92.28 23.58,-3.44 43.74,-26.51 38.7,-54.75 -3.9,-21.86 -26.03,-41.99 -52.52,-37.54zm0.06 535.1c-61.97,10.16 -47.34,100.68 12.96,92.42 23.65,-3.24 43.54,-25.16 39.77,-53.26 -3.09,-23.06 -25.9,-43.56 -52.73,-39.16z"/>
 </g>
</svg>
